#N canvas 0 0 1366 725 10;
#X msg 13 125 \; pd dsp 0;
#X msg 13 86 \; pd dsp 1;
#X obj 35 672 noise~;
#X obj 34 701 s~ noise;
#X obj 99 702 s freq;
#X floatatom 99 673 5 0 0 0 - - -, f 5;
#X obj 149 701 s q;
#X floatatom 149 673 5 0 0 0 - - -, f 5;
#X obj 847 526 sh.stars;
#X obj 125 20 loadbang;
#X msg 149 649 6000;
#X obj 123 44 s bang;
#X obj 148 620 r bang;
#X obj 99 620 r bang;
#X text 252 13 ADSR Env (Starsound);
#X obj 290 498 tgl 15 0 empty empty empty 17 7 0 10 -262144 -1 -1 0
1;
#X obj 317 498 tgl 15 0 empty empty empty 17 7 0 10 -262144 -1 -1 0
1;
#X obj 346 498 tgl 15 0 empty empty empty 17 7 0 10 -262144 -1 -1 0
1;
#X obj 378 497 tgl 15 0 empty empty empty 17 7 0 10 -262144 -1 -1 0
1;
#X obj 412 498 tgl 15 0 empty empty empty 17 7 0 10 -262144 -1 -1 0
1;
#X obj 446 498 tgl 15 0 empty empty empty 17 7 0 10 -262144 -1 -1 0
1;
#X obj 480 498 tgl 15 0 empty empty empty 17 7 0 10 -262144 -1 -1 0
1;
#X obj 516 498 tgl 15 0 empty empty empty 17 7 0 10 -262144 -1 -1 0
1;
#X obj 553 498 tgl 15 0 empty empty empty 17 7 0 10 -262144 -1 -1 0
1;
#X obj 285 548 s star1;
#X obj 312 585 s star2;
#X obj 341 548 s star3;
#X obj 374 585 s star4;
#X obj 406 552 s star5;
#X obj 433 585 s star6;
#X obj 469 551 s star7;
#X obj 495 587 s star8;
#X obj 537 545 s star9;
#X msg 100 646 80;
#X obj 863 701 sig~;
#X text 934 717 q;
#X floatatom 865 672 5 0 0 0 - - -, f 5;
#X floatatom 898 718 5 0 0 0 - - -, f 5;
#X obj 848 738 vcf~ 1;
#X obj 863 620 r bang;
#X obj 88 568 r changescale;
#X text 675 62 0 = Overtones 1 = Pentatonic 2 = Major Thirds 3 = Minor
Thirds;
#X obj 676 151 sh.scales;
#X msg 781 97 0;
#X msg 839 97 1;
#X msg 894 97 2;
#X msg 946 97 3;
#X obj 782 132 s scale;
#X obj 742 780 sh.atmo;
#X obj 294 347 notein;
#X floatatom 293 373 0 0 0 0 - - -;
#X obj 292 398 select 9 10 11 12 25 26 27 28;
#X floatatom 47 300 0 0 0 0 - - -;
#X floatatom 34 350 0 0 0 0 - - -;
#X obj 34 263 ctlin;
#X obj 69 360 select 21;
#X msg 69 395 1;
#X msg 103 394 0;
#X obj 70 425 spigot 0;
#X msg 141 395 1;
#X msg 175 394 0;
#X obj 142 425 spigot 0;
#X obj 141 360 select 22;
#X obj 69 467 / 127;
#X obj 67 531 + 50;
#X text 15 239 Launchcontrol Knob 1 & 2;
#X text 273 322 Launch Control 1 - 8;
#X msg 862 649 400;
#X obj 67 498 * 300;
#X obj 710 333 s notein;
#X text 349 289 Später notein in durch Sensordata ersetzen;
#X obj 305 844 sh.looper;
#X obj 305 804 tgl 15 0 empty empty empty 17 7 0 10 -262144 -1 -1 0
1;
#X text 334 797 Turn on/off loop Funktion;
#X text 443 817 Threshold;
#X floatatom 390 819 5 1000 10000 0 - - -, f 5;
#X obj 210 334 r loopout;
#X obj 497 385 r firstnote;
#X text 483 364 schaltet alles aus bei neuer Loopaufnahme;
#X msg 524 413 0;
#X obj 267 302 r firstnotevalue;
#X text 651 430 schickt kurz nach firstnote den ersten Notenwert raus
\, damit die Note korrekt gespielt wird und sich durch das auf Null
setzen nicht der erste Ton umdreht;
#X obj 573 385 r loop_off;
#X obj 208 21 bng 15 250 50 0 empty empty empty 17 7 0 10 -262144 -1
-1;
#X obj 1566 15 loadbang;
#X obj 1566 76 s bela_setDigital;
#X obj 1080 114 adc~ 3;
#X text 1058 39 Analog Inputs Bela (Buttons);
#X obj 1093 147 snapshot~;
#X obj 1365 53 metro 100;
#X obj 1367 23 tgl 15 0 empty empty empty 17 7 0 10 -262144 -1 -1 1
1;
#X obj 1287 13 r bang;
#X msg 1287 34 1;
#X obj 1151 474 change;
#X obj 528 175 r button1;
#X obj 1151 501 s button1;
#X text 1442 17 LEDs Digital Out;
#X obj 1222 447 > 0.5;
#X obj 1229 145 snapshot~;
#X obj 1220 475 change;
#X obj 1294 449 > 0.5;
#X obj 1309 155 snapshot~;
#X obj 1288 477 change;
#X obj 1353 450 > 0.5;
#X obj 1375 160 snapshot~;
#X obj 1351 477 change;
#X obj 1420 451 > 0.5;
#X obj 1463 158 snapshot~;
#X obj 1415 477 change;
#X obj 1486 451 > 0.5;
#X obj 1535 159 snapshot~;
#X obj 1478 477 change;
#X obj 1550 451 > 0.5;
#X obj 1614 171 snapshot~;
#X obj 1544 475 change;
#X obj 1631 446 > 0.5;
#X obj 1694 182 snapshot~;
#X obj 1608 476 change;
#X obj 1216 112 adc~ 4;
#X obj 1296 122 adc~ 5;
#X obj 1364 118 adc~ 6;
#X obj 1450 98 adc~ 7;
#X obj 1522 96 adc~ 8;
#X obj 1601 138 adc~ 9;
#X obj 1681 147 adc~ 10;
#X obj 1220 502 s button2;
#X obj 1287 502 s button3;
#X obj 1351 502 s button4;
#X obj 1417 502 s button5;
#X obj 1480 501 s button6;
#X obj 1543 500 s button7;
#X obj 1607 499 s button8;
#X obj 600 178 r button2;
#X obj 664 177 r button3;
#X obj 735 177 r button4;
#X obj 578 414 r button5;
#X obj 577 440 r button6;
#X obj 580 461 r button7;
#X obj 604 482 r button8;
#X obj 1099 753 r bang;
#X msg 1099 776 0;
#X obj 1111 718 phasor~ 50;
#X obj 1184 800 dac~ 11;
#X obj 1219 573 r~ star1_amp;
#X obj 793 935 dac~ 1 2;
#X text 520 617 LOOP on/off;
#X msg 647 582 1;
#X msg 684 583 0;
#X obj 518 737 sel 1;
#X obj 500 774 bng 15 250 50 0 empty empty empty 17 7 0 10 -262144
-1 -1;
#X obj 309 691 r bang;
#X msg 529 250 9;
#X obj 530 225 bng 15 250 50 0 empty empty empty 17 7 0 10 -262144
-1 -1;
#X text 798 360 Buttons müssen über Zahlen rein \, damit der Looper
funktioniert (wegen Midizeugs);
#X obj 598 233 bng 15 250 50 0 empty empty empty 17 7 0 10 -262144
-1 -1;
#X msg 598 253 10;
#X obj 669 230 bng 15 250 50 0 empty empty empty 17 7 0 10 -262144
-1 -1;
#X msg 669 250 11;
#X obj 738 231 bng 15 250 50 0 empty empty empty 17 7 0 10 -262144
-1 -1;
#X msg 738 251 12;
#X obj 528 196 change;
#X obj 600 199 change;
#X obj 664 198 change;
#X obj 735 198 change;
#X obj 563 671 change;
#X obj 1220 726 -~ 0.5;
#X obj 1206 749 +~;
#X obj 1218 680 *~ 0.03;
#X obj 1219 599 env~ 4096;
#X msg 1219 633 \$1 200;
#X obj 1219 658 line~;
#X obj 1116 594 *~ 10000;
#X obj 1117 618 abs~;
#X obj 1117 639 clip~ 0 1;
#X obj 1116 573 r~ star1_amp;
#X obj 1117 660 *~ 0.1;
#X text 667 496 optionale flakkerzugabe evt. noch lopass dazu \, evt
fenster kleiner machen;
#X obj 1347 759 r bang;
#X msg 1347 782 0;
#X obj 1359 724 phasor~ 50;
#X obj 1468 732 -~ 0.5;
#X obj 1454 755 +~;
#X obj 1466 686 *~ 0.03;
#X obj 1467 605 env~ 4096;
#X msg 1467 639 \$1 200;
#X obj 1467 664 line~;
#X obj 1364 600 *~ 10000;
#X obj 1365 624 abs~;
#X obj 1365 645 clip~ 0 1;
#X obj 1365 666 *~ 0.1;
#X obj 1057 876 r bang;
#X msg 1057 899 0;
#X obj 1069 841 phasor~ 50;
#X obj 1178 849 -~ 0.5;
#X obj 1164 872 +~;
#X obj 1176 803 *~ 0.03;
#X obj 1182 853 env~ 4096;
#X msg 1177 756 \$1 200;
#X obj 1177 781 line~;
#X obj 1079 848 *~ 10000;
#X obj 1075 741 abs~;
#X obj 1075 762 clip~ 0 1;
#X obj 1075 783 *~ 0.1;
#X obj 1325 893 r bang;
#X msg 1325 916 0;
#X obj 1337 858 phasor~ 50;
#X obj 1446 866 -~ 0.5;
#X obj 1432 889 +~;
#X obj 1444 820 *~ 0.03;
#X obj 1445 739 env~ 4096;
#X msg 1445 773 \$1 200;
#X obj 1445 798 line~;
#X obj 1342 734 *~ 10000;
#X obj 1343 758 abs~;
#X obj 1343 779 clip~ 0 1;
#X obj 1343 800 *~ 0.1;
#X obj 1432 806 dac~ 12;
#X obj 1142 923 dac~ 13;
#X obj 1410 940 dac~ 14;
#X obj 1364 579 r~ star2_amp;
#X obj 1467 579 r~ star2_amp;
#X obj 1079 827 r~ star3_amp;
#X obj 1182 827 r~ star3_amp;
#X obj 1347 844 r~ star4_amp;
#X obj 1450 844 r~ star4_amp;
#X obj 803 236 bng 15 250 50 0 empty empty empty 17 7 0 10 -262144
-1 -1;
#X obj 800 203 change;
#X obj 866 227 bng 15 250 50 0 empty empty empty 17 7 0 10 -262144
-1 -1;
#X obj 863 194 change;
#X obj 928 231 bng 15 250 50 0 empty empty empty 17 7 0 10 -262144
-1 -1;
#X obj 925 198 change;
#X obj 995 223 bng 15 250 50 0 empty empty empty 17 7 0 10 -262144
-1 -1;
#X obj 992 190 change;
#X obj 800 182 r button5;
#X obj 863 173 r button6;
#X obj 925 177 r button7;
#X obj 992 169 r button8;
#X msg 803 256 25;
#X msg 866 247 26;
#X msg 928 251 27;
#X msg 995 243 28;
#X obj 1559 761 r bang;
#X msg 1559 784 0;
#X obj 1571 726 phasor~ 50;
#X obj 1680 734 -~ 0.5;
#X obj 1666 757 +~;
#X obj 1678 688 *~ 0.03;
#X obj 1679 607 env~ 4096;
#X msg 1679 641 \$1 200;
#X obj 1679 666 line~;
#X obj 1576 602 *~ 10000;
#X obj 1577 626 abs~;
#X obj 1577 647 clip~ 0 1;
#X obj 1577 668 *~ 0.1;
#X obj 1576 581 r~ star5_amp;
#X obj 1680 582 r~ star5_amp;
#X obj 1644 808 dac~ 16;
#X obj 1523 901 r bang;
#X obj 1536 866 phasor~ 50;
#X obj 1645 874 -~ 0.5;
#X obj 1631 897 +~;
#X obj 1643 828 *~ 0.03;
#X obj 1644 747 env~ 4096;
#X msg 1644 781 \$1 200;
#X obj 1644 806 line~;
#X obj 1541 742 *~ 10000;
#X obj 1542 766 abs~;
#X obj 1542 787 clip~ 0 1;
#X obj 1542 808 *~ 0.1;
#X obj 1546 852 r~ star6_amp;
#X obj 1650 853 r~ star6_amp;
#X obj 1609 948 dac~ 19;
#X floatatom 1523 922 5 0 0 0 - - -, f 5;
#X obj 1756 757 r bang;
#X obj 1769 722 phasor~ 50;
#X obj 1878 730 -~ 0.5;
#X obj 1864 753 +~;
#X obj 1876 684 *~ 0.03;
#X obj 1877 603 env~ 4096;
#X msg 1877 637 \$1 200;
#X obj 1877 662 line~;
#X obj 1774 598 *~ 10000;
#X obj 1775 622 abs~;
#X obj 1775 643 clip~ 0 1;
#X obj 1775 664 *~ 0.1;
#X floatatom 1756 778 5 0 0 0 - - -, f 5;
#X obj 1774 577 r~ star7_amp;
#X obj 1878 578 r~ star7_amp;
#X obj 1842 804 dac~ 20;
#X obj 1733 895 r bang;
#X obj 1746 860 phasor~ 50;
#X obj 1855 868 -~ 0.5;
#X obj 1841 891 +~;
#X obj 1853 822 *~ 0.03;
#X obj 1854 741 env~ 4096;
#X msg 1854 775 \$1 200;
#X obj 1854 800 line~;
#X obj 1751 736 *~ 10000;
#X obj 1752 760 abs~;
#X obj 1752 781 clip~ 0 1;
#X obj 1752 802 *~ 0.1;
#X floatatom 1733 916 5 0 0 0 - - -, f 5;
#X obj 1760 847 r~ star8_amp;
#X obj 1860 846 r~ star8_amp;
#X obj 1819 942 dac~ 22;
#X obj 563 871 r bang;
#X obj 709 895 *~ 0;
#X obj 562 916 line;
#X msg 563 892 1 1000;
#X obj 851 882 *~ 0;
#X msg 1565 39 out 11 ~ \, out 12 ~ \, out 13 ~ \, out 14 ~ \, in 17
\, out 16 ~ \, out 19 ~ \, out 20 ~ \, out 22 ~;
#X obj 460 642 r bela_digitalIn17;
#X obj 1151 447 > 0.8;
#X obj 1089 238 t f f;
#X obj 1181 230 t f f;
#X obj 1136 255 +;
#X obj 1255 247 t f f;
#X obj 1195 276 +;
#X obj 1230 287 +;
#X obj 1304 246 t f f;
#X obj 1370 268 t f f;
#X obj 1267 310 +;
#X obj 1432 267 t f f;
#X obj 1405 293 +;
#X msg 308 729 0;
#X obj 1517 276 t f f;
#X obj 1519 316 +;
#X obj 1598 284 t f f;
#X obj 1430 346 +;
#X obj 1458 359 / 8;
#X obj 1458 386 + 0.15;
#X obj 641 802 dbtorms;
#X obj 733 838 *~ 0.4;
#X obj 801 834 *~ 0.4;
#X obj 849 571 *~ 5;
#X obj 618 733 sh.sub;
#X obj 617 773 *~ 0.8;
#X text 881 798 left is sub and right stars \, change according to
the speaker setup!;
#X connect 2 0 3 0;
#X connect 5 0 4 0;
#X connect 7 0 6 0;
#X connect 8 0 334 0;
#X connect 9 0 11 0;
#X connect 9 0 1 0;
#X connect 10 0 7 0;
#X connect 12 0 10 0;
#X connect 13 0 33 0;
#X connect 15 0 24 0;
#X connect 16 0 25 0;
#X connect 17 0 26 0;
#X connect 18 0 27 0;
#X connect 19 0 28 0;
#X connect 20 0 29 0;
#X connect 21 0 30 0;
#X connect 22 0 31 0;
#X connect 23 0 32 0;
#X connect 33 0 5 0;
#X connect 34 0 38 1;
#X connect 36 0 34 0;
#X connect 37 0 38 2;
#X connect 38 0 306 0;
#X connect 38 0 309 0;
#X connect 39 0 67 0;
#X connect 40 0 5 0;
#X connect 43 0 47 0;
#X connect 44 0 47 0;
#X connect 45 0 47 0;
#X connect 46 0 47 0;
#X connect 48 0 332 0;
#X connect 48 1 333 0;
#X connect 49 0 50 0;
#X connect 50 0 51 0;
#X connect 51 0 15 0;
#X connect 51 1 16 0;
#X connect 51 2 17 0;
#X connect 51 3 18 0;
#X connect 51 4 19 0;
#X connect 51 5 20 0;
#X connect 51 6 21 0;
#X connect 51 7 22 0;
#X connect 52 0 55 0;
#X connect 52 0 62 0;
#X connect 53 0 58 0;
#X connect 53 0 61 0;
#X connect 54 0 53 0;
#X connect 54 1 52 0;
#X connect 55 0 56 0;
#X connect 55 1 57 0;
#X connect 56 0 58 1;
#X connect 57 0 58 1;
#X connect 58 0 63 0;
#X connect 59 0 61 1;
#X connect 60 0 61 1;
#X connect 62 0 59 0;
#X connect 62 1 60 0;
#X connect 63 0 68 0;
#X connect 64 0 5 0;
#X connect 67 0 36 0;
#X connect 68 0 64 0;
#X connect 72 0 71 0;
#X connect 75 0 71 1;
#X connect 76 0 51 0;
#X connect 77 0 79 0;
#X connect 79 0 23 0;
#X connect 79 0 22 0;
#X connect 79 0 21 0;
#X connect 79 0 20 0;
#X connect 79 0 19 0;
#X connect 79 0 18 0;
#X connect 79 0 17 0;
#X connect 79 0 16 0;
#X connect 79 0 15 0;
#X connect 80 0 51 0;
#X connect 82 0 79 0;
#X connect 83 0 11 0;
#X connect 84 0 310 0;
#X connect 86 0 88 0;
#X connect 88 0 313 0;
#X connect 89 0 88 0;
#X connect 89 0 98 0;
#X connect 89 0 101 0;
#X connect 89 0 104 0;
#X connect 89 0 107 0;
#X connect 89 0 110 0;
#X connect 89 0 113 0;
#X connect 89 0 116 0;
#X connect 90 0 89 0;
#X connect 91 0 92 0;
#X connect 92 0 90 0;
#X connect 93 0 95 0;
#X connect 94 0 160 0;
#X connect 97 0 99 0;
#X connect 98 0 314 0;
#X connect 99 0 125 0;
#X connect 100 0 102 0;
#X connect 101 0 316 0;
#X connect 102 0 126 0;
#X connect 103 0 105 0;
#X connect 104 0 319 0;
#X connect 105 0 127 0;
#X connect 106 0 108 0;
#X connect 107 0 320 0;
#X connect 108 0 128 0;
#X connect 109 0 111 0;
#X connect 110 0 325 0;
#X connect 111 0 129 0;
#X connect 112 0 114 0;
#X connect 113 0 327 0;
#X connect 114 0 130 0;
#X connect 115 0 117 0;
#X connect 116 0 322 0;
#X connect 117 0 131 0;
#X connect 118 0 98 0;
#X connect 119 0 101 0;
#X connect 120 0 104 0;
#X connect 121 0 107 0;
#X connect 122 0 110 0;
#X connect 123 0 113 0;
#X connect 124 0 116 0;
#X connect 132 0 161 0;
#X connect 133 0 162 0;
#X connect 134 0 163 0;
#X connect 135 0 19 0;
#X connect 136 0 20 0;
#X connect 137 0 21 0;
#X connect 138 0 22 0;
#X connect 139 0 140 0;
#X connect 140 0 142 0;
#X connect 141 0 166 0;
#X connect 143 0 168 0;
#X connect 146 0 164 0;
#X connect 147 0 164 0;
#X connect 148 0 149 0;
#X connect 149 0 72 0;
#X connect 150 0 324 0;
#X connect 151 0 51 0;
#X connect 151 0 69 0;
#X connect 152 0 151 0;
#X connect 154 0 155 0;
#X connect 155 0 51 0;
#X connect 155 0 69 0;
#X connect 156 0 157 0;
#X connect 157 0 51 0;
#X connect 157 0 69 0;
#X connect 158 0 159 0;
#X connect 159 0 51 0;
#X connect 159 0 69 0;
#X connect 160 0 152 0;
#X connect 161 0 154 0;
#X connect 162 0 156 0;
#X connect 163 0 158 0;
#X connect 164 0 148 0;
#X connect 165 0 166 1;
#X connect 166 0 142 0;
#X connect 167 0 165 0;
#X connect 168 0 169 0;
#X connect 169 0 170 0;
#X connect 170 0 167 0;
#X connect 171 0 172 0;
#X connect 172 0 173 0;
#X connect 173 0 175 0;
#X connect 174 0 171 0;
#X connect 175 0 165 0;
#X connect 177 0 178 0;
#X connect 178 0 216 0;
#X connect 179 0 181 0;
#X connect 180 0 181 1;
#X connect 181 0 216 0;
#X connect 182 0 180 0;
#X connect 183 0 184 0;
#X connect 184 0 185 0;
#X connect 185 0 182 0;
#X connect 186 0 187 0;
#X connect 187 0 188 0;
#X connect 188 0 189 0;
#X connect 189 0 180 0;
#X connect 190 0 191 0;
#X connect 191 0 217 0;
#X connect 192 0 194 0;
#X connect 193 0 194 1;
#X connect 194 0 217 0;
#X connect 195 0 193 0;
#X connect 196 0 197 0;
#X connect 197 0 198 0;
#X connect 198 0 195 0;
#X connect 199 0 200 0;
#X connect 200 0 201 0;
#X connect 201 0 202 0;
#X connect 202 0 193 0;
#X connect 203 0 204 0;
#X connect 204 0 218 0;
#X connect 205 0 207 0;
#X connect 206 0 207 1;
#X connect 207 0 218 0;
#X connect 208 0 206 0;
#X connect 209 0 210 0;
#X connect 210 0 211 0;
#X connect 211 0 208 0;
#X connect 212 0 213 0;
#X connect 213 0 214 0;
#X connect 214 0 215 0;
#X connect 215 0 206 0;
#X connect 219 0 186 0;
#X connect 220 0 183 0;
#X connect 221 0 199 0;
#X connect 222 0 196 0;
#X connect 223 0 212 0;
#X connect 224 0 209 0;
#X connect 225 0 237 0;
#X connect 226 0 225 0;
#X connect 227 0 238 0;
#X connect 228 0 227 0;
#X connect 229 0 239 0;
#X connect 230 0 229 0;
#X connect 231 0 240 0;
#X connect 232 0 231 0;
#X connect 233 0 226 0;
#X connect 234 0 228 0;
#X connect 235 0 230 0;
#X connect 236 0 232 0;
#X connect 237 0 51 0;
#X connect 237 0 69 0;
#X connect 238 0 51 0;
#X connect 238 0 69 0;
#X connect 239 0 51 0;
#X connect 239 0 69 0;
#X connect 240 0 51 0;
#X connect 240 0 69 0;
#X connect 241 0 242 0;
#X connect 242 0 256 0;
#X connect 243 0 245 0;
#X connect 244 0 245 1;
#X connect 245 0 256 0;
#X connect 246 0 244 0;
#X connect 247 0 248 0;
#X connect 248 0 249 0;
#X connect 249 0 246 0;
#X connect 250 0 251 0;
#X connect 251 0 252 0;
#X connect 252 0 253 0;
#X connect 253 0 244 0;
#X connect 254 0 250 0;
#X connect 255 0 247 0;
#X connect 257 0 272 0;
#X connect 258 0 260 0;
#X connect 259 0 260 1;
#X connect 260 0 271 0;
#X connect 261 0 259 0;
#X connect 262 0 263 0;
#X connect 263 0 264 0;
#X connect 264 0 261 0;
#X connect 265 0 266 0;
#X connect 266 0 267 0;
#X connect 267 0 268 0;
#X connect 268 0 259 0;
#X connect 269 0 265 0;
#X connect 270 0 262 0;
#X connect 272 0 271 0;
#X connect 273 0 285 0;
#X connect 274 0 276 0;
#X connect 275 0 276 1;
#X connect 276 0 288 0;
#X connect 277 0 275 0;
#X connect 278 0 279 0;
#X connect 279 0 280 0;
#X connect 280 0 277 0;
#X connect 281 0 282 0;
#X connect 282 0 283 0;
#X connect 283 0 284 0;
#X connect 284 0 275 0;
#X connect 285 0 288 0;
#X connect 286 0 281 0;
#X connect 287 0 278 0;
#X connect 289 0 301 0;
#X connect 290 0 292 0;
#X connect 291 0 292 1;
#X connect 292 0 304 0;
#X connect 293 0 291 0;
#X connect 294 0 295 0;
#X connect 295 0 296 0;
#X connect 296 0 293 0;
#X connect 297 0 298 0;
#X connect 298 0 299 0;
#X connect 299 0 300 0;
#X connect 300 0 291 0;
#X connect 301 0 304 0;
#X connect 302 0 297 0;
#X connect 303 0 294 0;
#X connect 305 0 308 0;
#X connect 307 0 306 1;
#X connect 307 0 309 1;
#X connect 308 0 307 0;
#X connect 309 0 144 1;
#X connect 310 0 85 0;
#X connect 311 0 164 0;
#X connect 312 0 93 0;
#X connect 313 0 312 0;
#X connect 313 1 315 0;
#X connect 314 0 97 0;
#X connect 314 1 315 1;
#X connect 315 0 317 0;
#X connect 316 0 100 0;
#X connect 316 1 317 1;
#X connect 317 0 318 0;
#X connect 318 0 321 0;
#X connect 319 0 103 0;
#X connect 319 1 318 1;
#X connect 320 0 106 0;
#X connect 320 1 321 1;
#X connect 321 0 323 0;
#X connect 322 0 115 0;
#X connect 322 1 323 1;
#X connect 323 0 328 0;
#X connect 324 0 72 0;
#X connect 325 0 109 0;
#X connect 325 1 326 1;
#X connect 326 0 328 1;
#X connect 327 0 112 0;
#X connect 327 1 326 0;
#X connect 328 0 329 0;
#X connect 329 0 330 0;
#X connect 330 0 312 1;
#X connect 330 0 97 1;
#X connect 330 0 100 1;
#X connect 330 0 103 1;
#X connect 330 0 106 1;
#X connect 330 0 109 1;
#X connect 330 0 112 1;
#X connect 330 0 115 1;
#X connect 332 0 306 0;
#X connect 333 0 309 0;
#X connect 334 0 38 0;
#X connect 335 0 336 0;
#X connect 336 0 144 0;
