#N canvas 636 92 1014 775 10;
#X obj 338 381 *~;
#X obj 394 324 osc~;
#X obj 394 220 random 100;
#X obj 394 246 / 100;
#X obj 394 275 / 5;
#X obj 394 195 bng 15 250 50 0 empty empty empty 17 7 0 10 -262144
-1 -1;
#X obj 319 527 *~;
#X obj 380 526 *~;
#X obj 451 426 osc~ 0.05;
#X obj 452 503 *~ -1;
#X obj 395 353 +~ 1;
#X obj 396 374 *~ 0.5;
#X obj 451 448 +~ 1;
#X obj 452 469 *~ 0.5;
#X obj 395 170 metro 6127;
#X obj 451 526 *~ 0.5;
#X obj 385 495 *~ 0.5;
#X obj 294 124 tgl 15 0 empty \$0-1 empty 17 7 0 10 -262144 -1 -1 1
1;
#X floatatom 344 289 5 0 0 0 - #0-Q -, f 5;
#X obj 298 240 noise~;
#X obj 312 340 vcf~ 1;
#X floatatom 210 245 5 0 0 0 - - -, f 5;
#X obj 293 609 outlet~;
#X obj 374 605 outlet~;
#X obj 130 92 inlet;
#X text 387 138 comment;
#X obj 289 48 r bang;
#X msg 286 88 1;
#X connect 0 0 6 0;
#X connect 0 0 7 0;
#X connect 1 0 10 0;
#X connect 2 0 3 0;
#X connect 3 0 4 0;
#X connect 4 0 1 0;
#X connect 5 0 2 0;
#X connect 6 0 22 0;
#X connect 7 0 23 0;
#X connect 8 0 12 0;
#X connect 9 0 15 0;
#X connect 10 0 11 0;
#X connect 11 0 0 1;
#X connect 12 0 13 0;
#X connect 13 0 9 0;
#X connect 13 0 16 0;
#X connect 14 0 5 0;
#X connect 15 0 7 1;
#X connect 16 0 6 1;
#X connect 17 0 14 0;
#X connect 18 0 20 2;
#X connect 19 0 20 0;
#X connect 20 0 0 0;
#X connect 21 0 20 1;
#X connect 24 0 21 0;
#X connect 26 0 27 0;
#X connect 27 0 17 0;
