#N canvas 0 50 450 472 10;
#X obj 71 28 inlet;
#X obj 117 29 inlet;
#X obj 156 28 inlet;
#X obj 202 30 inlet;
#X obj 248 31 inlet;
#X obj 287 30 inlet;
#X obj 326 31 inlet;
#X obj 365 30 inlet;
#X obj 208 356 outlet;
#X obj 82 152 +;
#X obj 205 303 * 0.125;
#X obj 131 148 +;
#X obj 182 150 +;
#X obj 242 150 +;
#X obj 193 200 +;
#X obj 125 204 +;
#X obj 176 242 +;
#X obj 205 324 + 0.1;
#X connect 0 0 9 0;
#X connect 1 0 9 1;
#X connect 2 0 11 0;
#X connect 3 0 11 1;
#X connect 4 0 12 0;
#X connect 5 0 12 1;
#X connect 6 0 13 0;
#X connect 7 0 13 1;
#X connect 9 0 15 0;
#X connect 10 0 17 0;
#X connect 11 0 15 1;
#X connect 12 0 14 0;
#X connect 13 0 14 1;
#X connect 14 0 16 1;
#X connect 15 0 16 0;
#X connect 16 0 10 0;
#X connect 17 0 8 0;
