#N canvas 0 0 1920 997 10;
#X obj 220 892 outlet~;
#X obj 1118 873 outlet~;
#X floatatom 837 755 5 0 0 0 - - -, f 5;
#X obj 656 876 *~ 0.3;
#X obj 724 872 *~ 0.3;
#X obj 687 793 atmo_Wave;
#X floatatom 737 738 5 0 0 0 - - -, f 5;
#X obj 847 684 r bang;
#X obj 870 780 + 56;
#X msg 844 714 200;
#X obj 559 793 atmo_Wave;
#X obj 1136 665 delwrite~ delay 50;
#X obj 1286 689 *~ 10;
#X obj 1286 710 +~ 15;
#X obj 1159 776 delread4~ delay 50;
#X obj 759 89 r freq;
#X obj 827 90 r bang;
#X obj 905 93 r freq;
#X obj 973 94 r bang;
#X obj 1025 94 r freq;
#X obj 1093 95 r bang;
#X obj 1288 92 r freq;
#X obj 1356 93 r bang;
#X obj 1158 95 r freq;
#X obj 1226 96 r bang;
#X obj 1409 88 r freq;
#X obj 1477 89 r bang;
#X text 1000 46 \$1 = Multiplikationsfaktor \$2 = Delaytime;
#X obj 1088 539 omniFilter_abs~ lopass;
#X obj 1391 368 + 100;
#X obj 1391 392 dbtorms;
#X msg 1393 446 \$1 100;
#X obj 1393 470 line~;
#X floatatom 1391 421 5 0 0 0 - - -, f 5;
#X obj 1392 341 nbx 5 14 -1e+037 1e+037 0 1 empty empty empty 0 -8
0 10 -262144 -1 -1 -25 256;
#X obj 1063 141 sh.drone 2 18000;
#X obj 1286 667 osc~ 0.01;
#X obj 1281 396 *~ 50;
#X obj 1281 372 osc~ 0.001;
#X obj 796 136 sh.drone 0.5 18000;
#X obj 942 140 sh.drone 1 18000;
#X obj 1201 142 sh.drone 2.5 18000;
#X obj 1331 139 sh.drone 3 18000;
#X obj 1452 136 sh.drone 4.5 18000;
#X obj 1281 423 +~ 300;
#X obj 973 631 *~ 3.5;
#X obj 263 792 lop~ 50;
#X obj 1125 817 lop~ 50;
#X connect 2 0 8 0;
#X connect 2 0 10 0;
#X connect 3 0 0 0;
#X connect 4 0 1 0;
#X connect 5 0 3 0;
#X connect 5 1 4 0;
#X connect 6 0 5 0;
#X connect 7 0 9 0;
#X connect 8 0 6 0;
#X connect 9 0 2 0;
#X connect 10 0 3 0;
#X connect 10 1 4 0;
#X connect 12 0 13 0;
#X connect 13 0 14 0;
#X connect 14 0 47 0;
#X connect 15 0 39 0;
#X connect 16 0 39 1;
#X connect 17 0 40 0;
#X connect 18 0 40 1;
#X connect 19 0 35 0;
#X connect 20 0 35 1;
#X connect 21 0 42 0;
#X connect 22 0 42 1;
#X connect 23 0 41 0;
#X connect 24 0 41 1;
#X connect 25 0 43 0;
#X connect 26 0 43 1;
#X connect 28 0 45 0;
#X connect 29 0 30 0;
#X connect 30 0 33 0;
#X connect 31 0 32 0;
#X connect 32 0 28 2;
#X connect 33 0 31 0;
#X connect 34 0 29 0;
#X connect 35 0 28 0;
#X connect 36 0 12 0;
#X connect 37 0 44 0;
#X connect 38 0 37 0;
#X connect 39 0 28 0;
#X connect 40 0 28 0;
#X connect 41 0 28 0;
#X connect 42 0 28 0;
#X connect 43 0 28 0;
#X connect 44 0 28 1;
#X connect 45 0 11 0;
#X connect 45 0 46 0;
#X connect 46 0 0 0;
#X connect 47 0 1 0;
