#N canvas 46 74 1614 756 10;
#X obj 430 344 *~;
#X obj 536 349 vline~;
#X msg 536 302 1 \$2 \, \$4 \$3 \$2;
#X msg 640 302 0 \$2;
#X text 442 220 trigger a d s;
#X obj 428 157 sel 1;
#X obj 429 483 outlet~;
#X obj 288 103 inlet~;
#X obj 534 217 pack f \$1 \$2 \$3;
#X obj 638 216 pack f \$4;
#X msg 330 319 0;
#X text 702 219 r;
#X floatatom 563 123 5 0 0 0 - - -, f 5;
#X floatatom 599 123 5 0 0 0 - - -, f 5;
#X floatatom 634 128 5 0 0 0 - - -, f 5;
#X floatatom 688 120 5 0 0 0 - - -, f 5;
#X obj 510 74 r attack_s;
#X obj 648 74 r sustain_s;
#X obj 582 71 r decay_s;
#X obj 728 75 r release_s;
#X obj 422 96 inlet;
#X text 281 63 Signal;
#X text 413 63 On/Off;
#X connect 0 0 6 0;
#X connect 1 0 0 1;
#X connect 2 0 1 0;
#X connect 3 0 1 0;
#X connect 5 0 8 0;
#X connect 5 1 9 0;
#X connect 7 0 0 0;
#X connect 8 0 2 0;
#X connect 9 0 3 0;
#X connect 10 0 0 1;
#X connect 12 0 8 1;
#X connect 13 0 8 2;
#X connect 14 0 8 3;
#X connect 15 0 9 1;
#X connect 16 0 12 0;
#X connect 17 0 14 0;
#X connect 18 0 13 0;
#X connect 19 0 15 0;
#X connect 20 0 5 0;
