#N canvas 85 475 450 300 10;
#X obj 140 29 inlet;
#X obj 140 165 outlet;
#X obj 140 116 + 1;
#X obj 249 30 inlet;
#X obj 192 123 + 1;
#X floatatom 141 72 5 0 0 0 - - -, f 5;
#X msg 249 88 1;
#X connect 0 0 5 0;
#X connect 2 0 1 0;
#X connect 2 0 4 0;
#X connect 3 0 6 0;
#X connect 4 0 2 1;
#X connect 5 0 2 0;
#X connect 6 0 2 1;
