#N canvas 1912 -8 1920 997 10;
#X obj 176 232 phasor~ 80;
#X obj 327 143 t b b;
#X obj 343 88 bng 15 250 50 0 empty empty empty 17 7 0 10 -262144 -1
-1;
#X msg 325 209 1;
#X floatatom 185 349 5 0 0 0 - - -, f 5;
#X obj 148 277 sh.adsr_atmo 10000 10000 0 2000;
#X obj 266 39 r bang;
#X obj 197 673 outlet~;
#X obj 115 68 inlet;
#X obj 261 75 inlet;
#X obj 158 163 * \$1;
#X obj 413 186 delay \$2;
#X obj 198 484 *~ 0.1;
#X obj 113 374 lop~ 10000;
#X connect 0 0 5 0;
#X connect 1 0 11 0;
#X connect 1 1 3 0;
#X connect 2 0 1 0;
#X connect 3 0 5 1;
#X connect 4 0 13 1;
#X connect 5 0 13 0;
#X connect 6 0 2 0;
#X connect 8 0 10 0;
#X connect 9 0 2 0;
#X connect 10 0 0 0;
#X connect 11 0 2 0;
#X connect 12 0 7 0;
#X connect 13 0 12 0;
