#N canvas -8 -8 1920 997 10;
#X obj 111 65 r notein;
#X floatatom 111 139 5 0 0 0 - - -, f 5;
#X obj 35 28 inlet;
#X obj 465 35 inlet;
#X text 506 36 threshold;
#X text 89 31 on off switch;
#X obj 46 469 pack f f;
#X obj 197 437 timer;
#X obj 197 394 bng 15 250 50 0 empty empty empty 17 7 0 10 -262144
-1 -1;
#X obj 225 408 bng 15 250 50 0 empty empty empty 17 7 0 10 -262144
-1 -1;
#X text 18 301 erste Note;
#X obj 71 327 t f b b;
#X msg 90 351 0;
#X obj 218 185 bng 15 250 50 0 empty empty empty 17 7 0 10 -262144
-1 -1;
#X obj 275 185 bng 15 250 50 0 empty empty empty 17 7 0 10 -262144
-1 -1;
#X obj 218 209 sh.counter;
#X obj 111 295 spigot;
#X obj 111 168 t f b;
#X obj 218 243 < 2;
#X text 307 299 alle weiteren Noten;
#X obj 260 242 >= 2;
#X obj 294 342 spigot;
#X obj 197 481 pack f f;
#X obj 294 371 t b f b;
#X obj 111 91 spigot;
#X obj 35 100 select 0;
#X obj 402 100 delay 10000;
#X obj 311 232 s counter.loop;
#X obj 403 585 r counter.loop;
#X obj 154 635 text insert looper;
#X obj 276 635 text define looper;
#X obj 161 347 s firstnote;
#X msg 276 594 clear;
#X obj 276 556 r firstnote;
#X text 476 89 startet das Textauslesen resettet den Counter;
#X obj 357 74 bng 15 250 50 0 empty empty empty 17 7 0 10 -262144 -1
-1;
#X obj 736 139 bng 15 250 50 0 empty empty empty 17 7 0 10 -262144
-1 -1;
#X obj 801 158 text size looper;
#X text 763 138 get number of lines;
#X obj 744 537 text get looper;
#X obj 801 188 - 1;
#X text 600 192 last line = n-1 (starts with 0);
#X text 846 429 last line;
#X obj 922 434 ==;
#X obj 996 281 f;
#X obj 866 488 spigot;
#X obj 801 222 t f f f;
#X obj 1027 431 spigot;
#X obj 1072 409 !=;
#X obj 1024 492 text get looper;
#X obj 1025 526 unpack f f;
#X obj 1082 564 delay;
#X obj 1041 604 f;
#X obj 1009 642 t b f;
#X obj 978 131 bng 15 250 50 0 empty empty empty 17 7 0 10 -262144
-1 -1;
#X text 996 130 reset reverse counter;
#X obj 800 316 sh.reversecounter;
#X obj 1245 283 f;
#X obj 1280 283 f;
#X obj 1272 339 -;
#X obj 1245 204 t b b f;
#X obj 1280 409 f;
#X obj 1211 411 ==;
#X obj 824 354 t f f f;
#X obj 1209 493 spigot;
#X msg 1186 343 0;
#X text 1109 28 speichert n-1 und zählt dann runter n-1 = letzte Zeile
im Text n-1 wird links verarbeitet n-2 bis n-n+1 wird in der Mitte
verarbeitet n-n wird rechts verarbeitet;
#X text 1407 99 n-1 wird direkt rausgeschickt und bangt oben wieder
das gespeicherte n-1 (welches in sh-reversecount -1 gerechnet wird
n-2 bis n-n+1 wird nach der Delayzeit rausgeschickt und bang ebenfalls
n-1 n-n ist die erste Zeile des Textes und somit die letzte Eingabe
vom Loop;
#X text 1053 325 schließt durchgang 1 & 2 bei n-n;
#X obj 1153 439 select 1;
#X obj 1211 559 text get looper;
#X obj 1212 593 unpack f f;
#X obj 1269 631 delay;
#X obj 1228 671 f;
#X obj 1196 703 t b f;
#X obj 1007 85 t b b;
#X text 1082 702 Restart loop after delaytime;
#X obj 1005 226 bng 15 250 50 0 empty empty empty 17 7 0 10 -262144
-1 -1;
#X obj 786 772 t b f;
#X obj 744 569 unpack f f;
#X text 381 708 wenn ich diesen Delay nicht reinmache \, dann kommt
ein Stack overflow... Warum???;
#X obj 759 706 f;
#X obj 972 854 s loopout;
#X obj 591 425 r firstnote;
#X text 473 387 schaltet alles aus wenn neuer Input kommt;
#X msg 591 467 stop, f 5;
#X msg 641 258 0;
#X obj 96 411 s firstnotevalue;
#X obj 1397 663 i;
#X obj 35 151 s loop_off;
#X obj 505 428 r loop_off;
#X obj 18 193 s loop_on;
#X obj 909 26 r loop_on;
#X obj 851 78 r firstnote;
#X obj 1521 523 sh.reversecounter;
#X msg 1508 466 1000;
#X obj 1617 461 bng 15 250 50 0 empty empty empty 17 7 0 10 -262144
-1 -1;
#X floatatom 1522 589 5 0 0 0 - - -, f 5;
#X msg 1499 718 13 20000;
#X obj 1499 739 unpack f f;
#X obj 1502 788 print;
#X obj 809 672 delay 2000;
#X connect 0 0 24 0;
#X connect 1 0 17 0;
#X connect 2 0 24 1;
#X connect 2 0 25 0;
#X connect 3 0 26 1;
#X connect 6 0 29 0;
#X connect 7 0 22 1;
#X connect 8 0 7 0;
#X connect 9 0 7 1;
#X connect 11 0 6 0;
#X connect 11 0 87 0;
#X connect 11 1 12 0;
#X connect 11 2 8 0;
#X connect 11 2 31 0;
#X connect 12 0 6 1;
#X connect 13 0 15 0;
#X connect 14 0 15 1;
#X connect 15 0 18 0;
#X connect 15 0 20 0;
#X connect 15 0 27 0;
#X connect 16 0 11 0;
#X connect 17 0 16 0;
#X connect 17 0 21 0;
#X connect 17 1 13 0;
#X connect 18 0 16 1;
#X connect 20 0 21 1;
#X connect 21 0 23 0;
#X connect 22 0 29 0;
#X connect 23 0 8 0;
#X connect 23 1 22 0;
#X connect 23 2 9 0;
#X connect 24 0 1 0;
#X connect 24 0 35 0;
#X connect 25 0 14 0;
#X connect 25 0 89 0;
#X connect 25 0 91 0;
#X connect 26 0 14 0;
#X connect 26 0 36 0;
#X connect 32 0 30 0;
#X connect 33 0 32 0;
#X connect 35 0 26 0;
#X connect 36 0 37 0;
#X connect 37 0 40 0;
#X connect 37 0 60 0;
#X connect 39 0 79 0;
#X connect 40 0 46 0;
#X connect 43 0 45 1;
#X connect 44 0 56 0;
#X connect 45 0 39 0;
#X connect 46 0 56 0;
#X connect 46 1 43 1;
#X connect 46 1 48 1;
#X connect 46 2 44 1;
#X connect 47 0 49 0;
#X connect 48 0 47 1;
#X connect 49 0 50 0;
#X connect 50 0 52 1;
#X connect 50 1 51 0;
#X connect 51 0 52 0;
#X connect 52 0 53 0;
#X connect 53 0 77 0;
#X connect 53 1 82 0;
#X connect 54 0 56 1;
#X connect 56 0 63 0;
#X connect 57 0 59 0;
#X connect 58 0 59 1;
#X connect 59 0 61 1;
#X connect 60 0 57 0;
#X connect 60 1 58 0;
#X connect 60 2 57 1;
#X connect 60 2 58 1;
#X connect 61 0 62 1;
#X connect 62 0 64 1;
#X connect 62 0 69 0;
#X connect 63 0 45 0;
#X connect 63 0 47 0;
#X connect 63 0 64 0;
#X connect 63 1 62 0;
#X connect 63 2 48 0;
#X connect 63 2 43 0;
#X connect 64 0 70 0;
#X connect 65 0 47 1;
#X connect 65 0 45 1;
#X connect 69 0 65 0;
#X connect 70 0 71 0;
#X connect 71 0 73 1;
#X connect 71 1 72 0;
#X connect 72 0 73 0;
#X connect 73 0 74 0;
#X connect 74 0 75 0;
#X connect 74 1 82 0;
#X connect 75 0 77 0;
#X connect 75 1 54 0;
#X connect 77 0 44 0;
#X connect 78 0 77 0;
#X connect 78 1 82 0;
#X connect 79 0 81 1;
#X connect 79 1 101 0;
#X connect 81 0 78 0;
#X connect 83 0 85 0;
#X connect 83 0 86 0;
#X connect 85 0 51 0;
#X connect 85 0 72 0;
#X connect 85 0 101 0;
#X connect 86 0 45 1;
#X connect 86 0 47 1;
#X connect 86 0 64 1;
#X connect 90 0 85 0;
#X connect 90 0 86 0;
#X connect 92 0 54 0;
#X connect 93 0 54 0;
#X connect 94 0 97 0;
#X connect 95 0 94 0;
#X connect 96 0 94 1;
#X connect 98 0 99 0;
#X connect 99 0 100 0;
#X connect 101 0 81 0;
