#N canvas 354 210 912 648 10;
#X obj 110 46 inlet;
#X obj 110 206 outlet;
#X floatatom 110 87 5 0 0 0 - - -, f 5;
#X obj 221 43 inlet;
#X msg 214 87 0;
#X text 271 42 reset;
#X text 31 27 Number of Lines Input;
#X obj 193 150 bng 15 250 50 0 empty empty empty 17 7 0 10 -262144
-1 -1;
#X obj 515 147 - 1;
#X obj 516 186 t b f;
#X obj 534 227 f;
#X obj 617 194 - 1;
#X msg 194 251 -1;
#X obj 241 289 - 1;
#X msg 221 205 set \$1;
#X obj 110 126 + 0;
#X msg 259 86 set -1;
#X connect 0 0 2 0;
#X connect 2 0 15 0;
#X connect 3 0 4 0;
#X connect 3 0 16 0;
#X connect 4 0 15 1;
#X connect 7 0 12 0;
#X connect 8 0 9 0;
#X connect 9 0 10 0;
#X connect 9 1 10 1;
#X connect 10 0 11 0;
#X connect 11 0 8 1;
#X connect 12 0 13 0;
#X connect 12 0 15 1;
#X connect 13 0 14 0;
#X connect 14 0 12 0;
#X connect 15 0 1 0;
#X connect 15 0 7 0;
#X connect 16 0 12 0;
