#N canvas 0 0 1366 725 10;
#X obj 142 76 r star1;
#X obj 220 504 outlet~;
#X obj 330 63 r star2;
#X obj 195 39 r star3;
#X obj 590 85 r star4;
#X obj 397 22 r star5;
#X obj 163 11 r star6;
#X obj 453 71 r star7;
#X obj 243 8 r star8;
#X obj 502 227 sh.adsr 70 500 0.7 7000;
#X obj 254 106 sh.adsr 70 500 0.7 7000;
#X obj 66 117 sh.adsr 70 500 0.7 7000;
#X obj 65 188 *~ 1;
#X obj 261 230 *~ 0.7;
#X obj 500 319 *~ 0.8;
#X obj 65 75 osc~ 160;
#X obj 253 64 osc~ 240;
#X obj 501 185 osc~ 200;
#X connect 0 0 11 1;
#X connect 2 0 10 1;
#X connect 3 0 11 1;
#X connect 4 0 9 1;
#X connect 5 0 10 1;
#X connect 6 0 11 1;
#X connect 7 0 10 1;
#X connect 8 0 11 1;
#X connect 9 0 14 0;
#X connect 10 0 13 0;
#X connect 11 0 12 0;
#X connect 12 0 1 0;
#X connect 13 0 1 0;
#X connect 14 0 1 0;
#X connect 15 0 11 0;
#X connect 16 0 10 0;
#X connect 17 0 9 0;
