#N canvas 0 0 1370 699 10;
#X obj 253 233 sig~;
#X floatatom 253 206 5 0 0 0 - - -;
#X floatatom 292 236 5 0 0 0 - - -;
#X obj 255 320 vcf~ 6000;
#X obj 193 233 r~ noise;
#X obj 294 206 r q;
#X obj 404 233 sig~;
#X floatatom 404 206 5 0 0 0 - - -;
#X floatatom 443 236 5 0 0 0 - - -;
#X obj 378 271 vcf~ 6000;
#X obj 344 233 r~ noise;
#X obj 445 206 r q;
#X obj 553 236 sig~;
#X floatatom 553 209 5 0 0 0 - - -;
#X floatatom 592 239 5 0 0 0 - - -;
#X obj 527 274 vcf~ 6000;
#X obj 493 236 r~ noise;
#X obj 594 209 r q;
#X obj 706 239 sig~;
#X floatatom 706 212 5 0 0 0 - - -;
#X floatatom 745 242 5 0 0 0 - - -;
#X obj 680 277 vcf~ 6000;
#X obj 646 239 r~ noise;
#X obj 747 212 r q;
#X obj 855 241 sig~;
#X floatatom 855 214 5 0 0 0 - - -;
#X floatatom 894 244 5 0 0 0 - - -;
#X obj 829 279 vcf~ 6000;
#X obj 795 241 r~ noise;
#X obj 896 214 r q;
#X obj 1007 242 sig~;
#X floatatom 1007 215 5 0 0 0 - - -;
#X floatatom 1046 245 5 0 0 0 - - -;
#X obj 981 280 vcf~ 6000;
#X obj 947 242 r~ noise;
#X obj 1048 215 r q;
#X obj 1154 244 sig~;
#X floatatom 1154 217 5 0 0 0 - - -;
#X floatatom 1193 247 5 0 0 0 - - -;
#X obj 1128 282 vcf~ 6000;
#X obj 1094 244 r~ noise;
#X obj 1195 217 r q;
#X obj 1312 247 sig~;
#X floatatom 1312 220 5 0 0 0 - - -;
#X floatatom 1351 250 5 0 0 0 - - -;
#X obj 1286 285 vcf~ 6000;
#X obj 1252 247 r~ noise;
#X obj 1353 220 r q;
#X obj 1305 162 * 9;
#X obj 256 126 r freq;
#X obj 403 123 r freq;
#X obj 552 123 r freq;
#X obj 704 125 r freq;
#X obj 851 121 r freq;
#X obj 999 114 r freq;
#X obj 1151 117 r freq;
#X obj 1301 112 r freq;
#X obj 468 700 outlet~;
#X obj 93 221 sig~;
#X floatatom 93 194 5 0 0 0 - - -;
#X floatatom 132 224 5 0 0 0 - - -;
#X obj 67 259 vcf~ 6000;
#X obj 33 221 r~ noise;
#X obj 97 120 r freq;
#X obj 134 194 r q;
#X obj 201 408 r star1;
#X obj 387 409 r star2;
#X obj 541 410 r star3;
#X obj 705 409 r star4;
#X obj 888 409 r star5;
#X obj 1072 410 r star6;
#X obj 1254 413 r star7;
#X obj 1440 413 r star8;
#X obj 1610 420 r star9;
#X obj 189 86 r mult1;
#X obj 307 84 r mult2;
#X obj 450 89 r mult3;
#X obj 608 83 r mult4;
#X obj 755 78 r mult5;
#X obj 902 75 r mult6;
#X obj 1050 74 r mult7;
#X obj 1220 74 r mult8;
#X obj 1367 74 r mult9;
#X obj 66 438 sh.adsr 70 200 0.5 7000;
#X obj 252 439 sh.adsr 70 200 0.5 7000;
#X obj 406 440 sh.adsr 70 200 0.5 7000;
#X obj 570 439 sh.adsr 70 200 0.5 7000;
#X obj 753 439 sh.adsr 70 200 0.5 7000;
#X obj 937 440 sh.adsr 70 200 0.5 7000;
#X obj 1119 443 sh.adsr 70 200 0.5 7000;
#X obj 1306 443 sh.adsr 70 200 0.5 7000;
#X obj 1475 450 sh.adsr 70 200 0.5 7000;
#X obj 960 823 print 2;
#X obj 960 844;
#X obj 63 644 s~ star1_amp;
#X obj 197 545 s~ star2_amp;
#X obj 307 609 s~ star3_amp;
#X obj 599 606 s~ star4_amp;
#X obj 732 610 s~ star5_amp;
#X obj 843 675 s~ star6_amp;
#X obj 1141 628 s~ star7_amp;
#X obj 1276 630 s~ star8_amp;
#X obj 1440 610 s~ star9_amp;
#X obj 468 598 *~ 10;
#X obj 96 154 * 2;
#X obj 253 172 * 3;
#X obj 405 170 * 4;
#X obj 551 168 * 5;
#X obj 705 165 * 6;
#X obj 853 161 * 7;
#X obj 999 158 * 9;
#X obj 1150 162 * 5.5;
#X obj 103 492 *~ 1.3;
#X connect 0 0 3 1;
#X connect 1 0 0 0;
#X connect 2 0 3 2;
#X connect 3 0 84 0;
#X connect 4 0 3 0;
#X connect 5 0 2 0;
#X connect 6 0 9 1;
#X connect 7 0 6 0;
#X connect 8 0 9 2;
#X connect 9 0 85 0;
#X connect 10 0 9 0;
#X connect 11 0 8 0;
#X connect 12 0 15 1;
#X connect 13 0 12 0;
#X connect 14 0 15 2;
#X connect 15 0 86 0;
#X connect 16 0 15 0;
#X connect 17 0 14 0;
#X connect 18 0 21 1;
#X connect 19 0 18 0;
#X connect 20 0 21 2;
#X connect 21 0 87 0;
#X connect 22 0 21 0;
#X connect 23 0 20 0;
#X connect 24 0 27 1;
#X connect 25 0 24 0;
#X connect 26 0 27 2;
#X connect 27 0 88 0;
#X connect 28 0 27 0;
#X connect 29 0 26 0;
#X connect 30 0 33 1;
#X connect 31 0 30 0;
#X connect 32 0 33 2;
#X connect 33 0 89 0;
#X connect 34 0 33 0;
#X connect 35 0 32 0;
#X connect 36 0 39 1;
#X connect 37 0 36 0;
#X connect 38 0 39 2;
#X connect 39 0 90 0;
#X connect 40 0 39 0;
#X connect 41 0 38 0;
#X connect 42 0 45 1;
#X connect 43 0 42 0;
#X connect 44 0 45 2;
#X connect 45 0 91 0;
#X connect 46 0 45 0;
#X connect 47 0 44 0;
#X connect 48 0 43 0;
#X connect 49 0 105 0;
#X connect 50 0 106 0;
#X connect 51 0 107 0;
#X connect 52 0 108 0;
#X connect 53 0 109 0;
#X connect 54 0 110 0;
#X connect 55 0 111 0;
#X connect 56 0 48 0;
#X connect 58 0 61 1;
#X connect 59 0 58 0;
#X connect 60 0 61 2;
#X connect 61 0 83 0;
#X connect 62 0 61 0;
#X connect 63 0 104 0;
#X connect 64 0 60 0;
#X connect 65 0 83 1;
#X connect 66 0 84 1;
#X connect 67 0 85 1;
#X connect 68 0 86 1;
#X connect 69 0 87 1;
#X connect 70 0 88 1;
#X connect 71 0 89 1;
#X connect 72 0 90 1;
#X connect 73 0 91 1;
#X connect 74 0 104 1;
#X connect 75 0 105 1;
#X connect 76 0 106 1;
#X connect 77 0 107 1;
#X connect 78 0 108 1;
#X connect 79 0 109 1;
#X connect 80 0 110 1;
#X connect 81 0 111 1;
#X connect 82 0 48 1;
#X connect 83 0 112 0;
#X connect 84 0 95 0;
#X connect 84 0 103 0;
#X connect 85 0 96 0;
#X connect 85 0 103 0;
#X connect 86 0 97 0;
#X connect 86 0 103 0;
#X connect 87 0 98 0;
#X connect 87 0 103 0;
#X connect 88 0 99 0;
#X connect 88 0 103 0;
#X connect 89 0 100 0;
#X connect 89 0 103 0;
#X connect 90 0 101 0;
#X connect 90 0 103 0;
#X connect 91 0 102 0;
#X connect 91 0 103 0;
#X connect 103 0 57 0;
#X connect 104 0 59 0;
#X connect 105 0 1 0;
#X connect 106 0 7 0;
#X connect 107 0 13 0;
#X connect 108 0 19 0;
#X connect 109 0 25 0;
#X connect 110 0 31 0;
#X connect 111 0 37 0;
#X connect 112 0 103 0;
#X connect 112 0 94 0;
