#N canvas 0 0 1920 997 10;
#X obj 328 651 s mult1;
#X obj 383 650 s mult2;
#X obj 440 651 s mult3;
#X obj 495 653 s mult4;
#X obj 548 654 s mult5;
#X obj 599 652 s mult6;
#X obj 655 652 s mult7;
#X obj 711 656 s mult8;
#X obj 767 656 s mult9;
#X obj 413 214 route 0 1 2 3 4 5;
#X obj 413 156 r scale;
#X obj 134 262 t b b;
#X obj 226 647 s changescale;
#X text 203 268 overtones;
#X obj 323 266 t b b;
#X text 388 279 pentatonic;
#X text 748 245 major3;
#X text 725 343 minor 3;
#X obj 679 251 t b b;
#X obj 653 371 t b b;
#X msg 159 300 1 2 3 4 5 6 7 8 9;
#X obj 692 525 unpack f f f f f f f f f;
#X msg 340 334 1 1.125 1.25 1.5 1.6667 2 2.25 2.5 3;
#X msg 718 279 1 1.25 1.5625 1.95313 2.44141 3.05176 3.8147 4.76837
5.96046;
#X msg 727 380 1 1.2 1.44 1.728 2.0736 2.48832 2.98598 3.58318 4.3
;
#X connect 9 0 11 0;
#X connect 9 1 14 0;
#X connect 9 2 18 0;
#X connect 9 3 19 0;
#X connect 10 0 9 0;
#X connect 11 0 12 0;
#X connect 11 1 20 0;
#X connect 14 0 12 0;
#X connect 14 1 22 0;
#X connect 18 0 12 0;
#X connect 18 1 23 0;
#X connect 19 0 12 0;
#X connect 19 1 24 0;
#X connect 20 0 21 0;
#X connect 21 0 0 0;
#X connect 21 1 1 0;
#X connect 21 2 2 0;
#X connect 21 3 3 0;
#X connect 21 4 4 0;
#X connect 21 5 5 0;
#X connect 21 6 6 0;
#X connect 21 7 7 0;
#X connect 21 8 8 0;
#X connect 22 0 21 0;
#X connect 23 0 21 0;
#X connect 24 0 21 0;
