#N canvas 112 238 1077 540 10;
#X obj 121 29 inlet;
#X obj 86 401 outlet;
#X obj 197 29 inlet;
#X obj 187 115 f;
#X obj 117 155 <;
#X obj 114 83 t b f f;
#X obj 153 310 f;
#X obj 115 182 sel 1;
#X obj 105 209 bng 15 250 50 0 empty empty empty 17 7 0 10 -262144
-1 -1;
#X text 403 43 comment;
#X connect 0 0 5 0;
#X connect 2 0 3 0;
#X connect 2 0 1 0;
#X connect 3 0 4 1;
#X connect 4 0 7 0;
#X connect 5 1 4 0;
#X connect 5 2 6 1;
#X connect 6 0 3 0;
#X connect 6 0 1 0;
#X connect 7 0 8 0;
#X connect 8 0 6 0;
